<mxfile host="app.diagrams.net" modified="2023-09-22T03:28:38.312Z" agent="Mozilla/5.0 (Windows NT 10.0; Win64; x64) AppleWebKit/537.36 (KHTML, like Gecko) Chrome/116.0.0.0 Safari/537.36" etag="b3I5IR843pmbQWsVObm2" version="21.8.0" type="github">
  <diagram name="第 1 页" id="5qfN61dqQ14ZzmdURkXZ">
    <mxGraphModel dx="1434" dy="790" grid="1" gridSize="10" guides="1" tooltips="1" connect="1" arrows="1" fold="1" page="1" pageScale="1" pageWidth="827" pageHeight="1169" math="0" shadow="0">
      <root>
        <mxCell id="0" />
        <mxCell id="1" parent="0" />
        <mxCell id="GmsbHzQ7G3zDGG8iCL56-1" value="User" style="shape=umlLifeline;perimeter=lifelinePerimeter;whiteSpace=wrap;container=1;dropTarget=0;collapsible=0;recursiveResize=0;outlineConnect=0;portConstraint=eastwest;newEdgeStyle={&quot;edgeStyle&quot;:&quot;elbowEdgeStyle&quot;,&quot;elbow&quot;:&quot;vertical&quot;,&quot;curved&quot;:0,&quot;rounded&quot;:0};size=65;" vertex="1" parent="1">
          <mxGeometry x="20" y="20" width="150" height="688" as="geometry" />
        </mxCell>
        <mxCell id="GmsbHzQ7G3zDGG8iCL56-2" value="App1" style="shape=umlLifeline;perimeter=lifelinePerimeter;whiteSpace=wrap;container=1;dropTarget=0;collapsible=0;recursiveResize=0;outlineConnect=0;portConstraint=eastwest;newEdgeStyle={&quot;edgeStyle&quot;:&quot;elbowEdgeStyle&quot;,&quot;elbow&quot;:&quot;vertical&quot;,&quot;curved&quot;:0,&quot;rounded&quot;:0};size=65;" vertex="1" parent="1">
          <mxGeometry x="220" y="20" width="150" height="688" as="geometry" />
        </mxCell>
        <mxCell id="GmsbHzQ7G3zDGG8iCL56-3" value="App2" style="shape=umlLifeline;perimeter=lifelinePerimeter;whiteSpace=wrap;container=1;dropTarget=0;collapsible=0;recursiveResize=0;outlineConnect=0;portConstraint=eastwest;newEdgeStyle={&quot;edgeStyle&quot;:&quot;elbowEdgeStyle&quot;,&quot;elbow&quot;:&quot;vertical&quot;,&quot;curved&quot;:0,&quot;rounded&quot;:0};size=65;" vertex="1" parent="1">
          <mxGeometry x="420" y="20" width="150" height="688" as="geometry" />
        </mxCell>
        <mxCell id="GmsbHzQ7G3zDGG8iCL56-4" value="SyncService" style="shape=umlLifeline;perimeter=lifelinePerimeter;whiteSpace=wrap;container=1;dropTarget=0;collapsible=0;recursiveResize=0;outlineConnect=0;portConstraint=eastwest;newEdgeStyle={&quot;edgeStyle&quot;:&quot;elbowEdgeStyle&quot;,&quot;elbow&quot;:&quot;vertical&quot;,&quot;curved&quot;:0,&quot;rounded&quot;:0};size=65;" vertex="1" parent="1">
          <mxGeometry x="650" y="20" width="150" height="688" as="geometry" />
        </mxCell>
        <mxCell id="GmsbHzQ7G3zDGG8iCL56-5" value="AudioData" style="shape=umlLifeline;perimeter=lifelinePerimeter;whiteSpace=wrap;container=1;dropTarget=0;collapsible=0;recursiveResize=0;outlineConnect=0;portConstraint=eastwest;newEdgeStyle={&quot;edgeStyle&quot;:&quot;elbowEdgeStyle&quot;,&quot;elbow&quot;:&quot;vertical&quot;,&quot;curved&quot;:0,&quot;rounded&quot;:0};size=65;" vertex="1" parent="1">
          <mxGeometry x="850" y="20" width="150" height="688" as="geometry" />
        </mxCell>
        <mxCell id="GmsbHzQ7G3zDGG8iCL56-6" value="在手机上录制音频" style="verticalAlign=bottom;endArrow=block;edgeStyle=elbowEdgeStyle;elbow=vertical;curved=0;rounded=0;" edge="1" parent="1" source="GmsbHzQ7G3zDGG8iCL56-1" target="GmsbHzQ7G3zDGG8iCL56-2">
          <mxGeometry relative="1" as="geometry">
            <Array as="points">
              <mxPoint x="205" y="127" />
            </Array>
          </mxGeometry>
        </mxCell>
        <mxCell id="GmsbHzQ7G3zDGG8iCL56-7" value="调用startSync()" style="verticalAlign=bottom;endArrow=block;edgeStyle=elbowEdgeStyle;elbow=vertical;curved=0;rounded=0;" edge="1" parent="1" source="GmsbHzQ7G3zDGG8iCL56-2" target="GmsbHzQ7G3zDGG8iCL56-4">
          <mxGeometry relative="1" as="geometry">
            <Array as="points">
              <mxPoint x="520" y="179" />
            </Array>
          </mxGeometry>
        </mxCell>
        <mxCell id="GmsbHzQ7G3zDGG8iCL56-8" value="启动同步服务" style="curved=1;rounded=0;" edge="1" parent="1" source="GmsbHzQ7G3zDGG8iCL56-4" target="GmsbHzQ7G3zDGG8iCL56-4">
          <mxGeometry relative="1" as="geometry">
            <Array as="points">
              <mxPoint x="775" y="231" />
              <mxPoint x="775" y="261" />
            </Array>
          </mxGeometry>
        </mxCell>
        <mxCell id="GmsbHzQ7G3zDGG8iCL56-9" value="调用syncData(data)" style="verticalAlign=bottom;endArrow=block;edgeStyle=elbowEdgeStyle;elbow=vertical;curved=0;rounded=0;" edge="1" parent="1" source="GmsbHzQ7G3zDGG8iCL56-2" target="GmsbHzQ7G3zDGG8iCL56-4">
          <mxGeometry relative="1" as="geometry">
            <Array as="points">
              <mxPoint x="520" y="313" />
            </Array>
          </mxGeometry>
        </mxCell>
        <mxCell id="GmsbHzQ7G3zDGG8iCL56-10" value="同步音频数据" style="verticalAlign=bottom;endArrow=block;edgeStyle=elbowEdgeStyle;elbow=vertical;curved=0;rounded=0;" edge="1" parent="1" source="GmsbHzQ7G3zDGG8iCL56-4" target="GmsbHzQ7G3zDGG8iCL56-5">
          <mxGeometry relative="1" as="geometry">
            <Array as="points">
              <mxPoint x="835" y="365" />
            </Array>
          </mxGeometry>
        </mxCell>
        <mxCell id="GmsbHzQ7G3zDGG8iCL56-11" value="数据传输完成" style="verticalAlign=bottom;endArrow=block;edgeStyle=elbowEdgeStyle;elbow=vertical;curved=0;rounded=0;dashed=1;dashPattern=2 3;" edge="1" parent="1" source="GmsbHzQ7G3zDGG8iCL56-5" target="GmsbHzQ7G3zDGG8iCL56-4">
          <mxGeometry relative="1" as="geometry">
            <Array as="points">
              <mxPoint x="835" y="417" />
            </Array>
          </mxGeometry>
        </mxCell>
        <mxCell id="GmsbHzQ7G3zDGG8iCL56-12" value="同步数据到平板电脑上" style="verticalAlign=bottom;endArrow=block;edgeStyle=elbowEdgeStyle;elbow=vertical;curved=0;rounded=0;dashed=1;dashPattern=2 3;" edge="1" parent="1" source="GmsbHzQ7G3zDGG8iCL56-4" target="GmsbHzQ7G3zDGG8iCL56-3">
          <mxGeometry relative="1" as="geometry">
            <Array as="points">
              <mxPoint x="620" y="469" />
            </Array>
          </mxGeometry>
        </mxCell>
        <mxCell id="GmsbHzQ7G3zDGG8iCL56-13" value="调用stopSync()" style="verticalAlign=bottom;endArrow=block;edgeStyle=elbowEdgeStyle;elbow=vertical;curved=0;rounded=0;" edge="1" parent="1" source="GmsbHzQ7G3zDGG8iCL56-3" target="GmsbHzQ7G3zDGG8iCL56-4">
          <mxGeometry relative="1" as="geometry">
            <Array as="points">
              <mxPoint x="620" y="521" />
            </Array>
          </mxGeometry>
        </mxCell>
        <mxCell id="GmsbHzQ7G3zDGG8iCL56-14" value="停止同步服务" style="curved=1;rounded=0;" edge="1" parent="1" source="GmsbHzQ7G3zDGG8iCL56-4" target="GmsbHzQ7G3zDGG8iCL56-4">
          <mxGeometry relative="1" as="geometry">
            <Array as="points">
              <mxPoint x="775" y="573" />
              <mxPoint x="775" y="603" />
            </Array>
          </mxGeometry>
        </mxCell>
      </root>
    </mxGraphModel>
  </diagram>
</mxfile>
